<svg width="115" height="22" viewBox="0 0 115 22" fill="none" xmlns="http://www.w3.org/2000/svg">
<path d="M32.9866 0H24.7369L20.6212 7.16071L16.5055 0H8.25578L4.12788 7.17857L0 14.3571L4.12788 21.5357H12.3776L16.4933 14.375L20.609 21.5357H28.8648L32.9866 14.3571L37.1145 7.17857L32.9866 0Z" fill="#E16F2C"/>
<path d="M46.6506 21.5298V0H52.6206L61.0405 15.2262H61.3444L61.0405 12.6131V0H65.6365V21.5298H59.6665L51.2466 6.30357H50.9427L51.2466 8.91666V21.5298H46.6506Z" fill="#0B2222"/>
<path d="M70.6153 19.6966C69.2353 18.1668 68.5483 16.1668 68.5483 13.6847C68.5483 11.2025 69.2353 9.19658 70.6153 7.67277C71.9953 6.14301 73.7036 5.3811 75.7463 5.3811C77.1142 5.3811 78.3483 5.79182 79.4547 6.61325C79.9228 7.00015 80.3241 7.41086 80.6463 7.84539H80.7983V5.84539H85.0842V21.5359H80.7983V19.5359H80.6463C80.318 19.9644 79.9228 20.3751 79.4547 20.768C78.3544 21.5894 77.1142 22.0001 75.7463 22.0001C73.7036 22.0001 71.9953 21.2382 70.6153 19.7085V19.6966ZM74.0623 10.2978C73.345 11.1192 72.9924 12.2442 72.9924 13.6787C72.9924 15.1132 73.351 16.2442 74.0623 17.0597C74.7797 17.8811 75.6977 18.2918 76.8163 18.2918C78.0018 18.2918 78.9623 17.8871 79.6979 17.0775C80.4335 16.268 80.7983 15.1371 80.7983 13.6787C80.7983 12.2204 80.4335 11.0894 79.6979 10.2799C78.9623 9.47039 78.0018 9.06563 76.8163 9.06563C75.6308 9.06563 74.7736 9.47634 74.0623 10.2978Z" fill="#0B2222"/>
<path d="M88.4524 21.5298V0H92.7383V17.8393H96.2583V21.5298H88.4463H88.4524Z" fill="#0B2222"/>
<path d="M99.7842 19.5715C98.1489 17.9644 97.3342 16.0001 97.3342 13.6787C97.3342 11.3572 98.1489 9.3989 99.7842 7.78581C101.42 6.17867 103.462 5.36914 105.912 5.36914C108.362 5.36914 110.381 6.17271 112.022 7.78581C113.663 9.39295 114.49 11.3572 114.49 13.6787C114.49 16.0001 113.669 17.9584 112.022 19.5715C110.381 21.1787 108.344 21.9882 105.912 21.9882C103.48 21.9882 101.42 21.1846 99.7842 19.5715ZM102.97 10.3572C102.173 11.2203 101.778 12.3275 101.778 13.6787C101.778 15.0299 102.173 16.137 102.97 17.0001C103.766 17.8632 104.745 18.2918 105.912 18.2918C107.079 18.2918 108.058 17.8632 108.855 17.0001C109.651 16.137 110.046 15.0299 110.046 13.6787C110.046 12.3275 109.651 11.2203 108.855 10.3572C108.058 9.49414 107.079 9.06557 105.912 9.06557C104.745 9.06557 103.766 9.49414 102.97 10.3572Z" fill="#0B2222"/>
</svg>
