<svg xmlns="http://www.w3.org/2000/svg" viewBox="0 0 220 64" fill="none">
  <defs>
    <linearGradient id="elioGradH" x1="0" y1="0" x2="64" y2="64" gradientUnits="userSpaceOnUse">
      <stop offset="0%" stop-color="#1B3A5C"/>
      <stop offset="65%" stop-color="#2A5580"/>
      <stop offset="100%" stop-color="#C8943E"/>
    </linearGradient>
    <linearGradient id="elioHighlightH" x1="0" y1="0" x2="0" y2="64" gradientUnits="userSpaceOnUse">
      <stop offset="0%" stop-color="#ffffff" stop-opacity="0.18"/>
      <stop offset="55%" stop-color="#ffffff" stop-opacity="0"/>
    </linearGradient>
  </defs>
  <g>
    <path d="M32 2C12 2 2 12 2 32s10 30 30 30 30-10 30-30S52 2 32 2Z" fill="url(#elioGradH)"/>
    <path d="M32 2C12 2 2 12 2 32s10 30 30 30 30-10 30-30S52 2 32 2Z" fill="url(#elioHighlightH)"/>
    <path d="M40.5 26.5c0-5-4-8.5-9.2-8.5-6 0-10.3 4.6-10.3 10.8 0 6.5 4.5 10.7 11 10.7 3.4 0 6.3-1 8.4-2.7l-2.4-3.6c-1.6 1.2-3.5 1.9-5.6 1.9-3.2 0-5.6-1.7-6.2-4.6h14.1c.1-.6.2-1.4.2-2Zm-14.2-1.8c.6-2.6 2.5-4.2 5-4.2s4.3 1.6 4.6 4.2H26.3Z" fill="#FAFAF7"/>
    <circle cx="32.5" cy="13" r="2.4" fill="#C8943E"/>
  </g>
  <!-- Wordmark 'élio' -->
  <g fill="#1B3A5C" font-family="'Sora', system-ui, sans-serif" font-weight="700">
    <text x="78" y="44" font-size="34" letter-spacing="-1">élio</text>
  </g>
</svg>
